<svg version="1.1" id="Layer_1" xmlns="http://www.w3.org/2000/svg" xmlns:xlink="http://www.w3.org/1999/xlink" x="0px" y="0px"
	 width="100%" viewBox="0 0 180 180" enable-background="new 0 0 180 180" xml:space="preserve">
<path fill="#181818" opacity="1.000000" stroke="none" 
	d="
M114.000000,181.000000 
	C76.000000,181.000000 38.500004,181.000000 1.000005,181.000000 
	C1.000003,121.000008 1.000003,61.000011 1.000002,1.000013 
	C60.999989,1.000009 120.999977,1.000009 180.999969,1.000004 
	C180.999985,60.999985 180.999985,120.999969 181.000000,180.999969 
	C158.833328,181.000000 136.666672,181.000000 114.000000,181.000000 
M50.424999,149.700241 
	C50.965775,149.723984 51.805645,149.530777 52.003349,149.803360 
	C56.344223,155.788025 59.387589,155.776016 62.830879,150.590454 
	C61.941769,148.247253 60.876087,146.652649 60.794796,145.009354 
	C60.482342,138.693008 60.850952,132.326904 60.263920,126.044899 
	C59.717361,120.196060 55.612183,117.548912 49.230930,117.981644 
	C43.372761,118.378906 38.136013,122.673203 38.225761,127.526352 
	C38.257416,129.238037 39.381649,131.363663 40.704029,132.458206 
	C41.527000,133.139389 44.425140,132.781738 45.023300,131.929611 
	C45.971786,130.578400 45.920979,128.430511 46.015953,126.605270 
	C46.093067,125.123222 45.370430,123.494331 45.790005,122.182426 
	C45.982071,121.581886 48.594566,120.955101 49.183884,121.447609 
	C50.433155,122.491653 51.533390,124.163857 51.875027,125.754539 
	C52.695835,129.576248 51.775570,132.468140 47.714058,134.565430 
	C43.044704,136.976608 38.313057,139.998932 37.655651,146.102631 
	C37.296635,149.435913 37.967766,152.568497 41.604992,153.838577 
	C44.902077,154.989899 48.507507,152.768051 49.930180,148.979996 
	C49.930180,148.979996 49.904217,149.061981 50.424999,149.700241 
M61.167728,35.064262 
	C61.167728,50.614658 61.167728,66.165054 61.167728,81.246849 
	C64.231293,81.097801 67.048553,80.186417 69.214195,81.003075 
	C75.292534,83.295174 80.828606,81.951126 84.356995,76.340347 
	C87.983284,70.573891 88.716263,64.165520 87.581871,57.630459 
	C85.715668,46.879509 79.571434,43.800564 69.775711,48.784050 
	C69.775711,42.530628 69.775711,36.455990 69.775711,30.186300 
	C65.816864,30.186300 62.222324,30.186300 58.691647,30.186300 
	C59.488819,31.507513 60.297699,32.848125 61.167728,35.064262 
M74.215546,127.500000 
	C74.215546,136.247849 74.215546,144.995682 74.215546,153.462463 
	C77.133652,153.160797 79.839493,152.061462 81.834122,152.823563 
	C88.713013,155.451813 94.839905,154.052750 97.749359,147.302185 
	C99.716484,142.738022 100.491638,137.447830 100.766304,132.425858 
	C101.044411,127.340981 99.195259,122.538757 94.788475,119.325462 
	C90.600143,116.271461 86.799461,118.588585 82.623535,121.138458 
	C82.623535,114.366798 82.623535,108.269012 82.623535,102.240814 
	C78.714371,102.240814 75.200890,102.240814 72.358994,102.240814 
	C76.027580,110.139656 73.410210,118.499184 74.215546,127.500000 
M18.218655,70.379608 
	C17.743513,73.901306 17.268372,77.423004 16.795803,80.925621 
	C20.265047,80.925621 24.886232,80.925621 28.599987,80.925621 
	C28.044497,78.043373 27.065319,75.182716 27.014887,72.305786 
	C26.825438,61.498684 26.938940,50.686275 26.938932,39.875854 
	C26.938929,36.621735 26.938931,33.367611 26.938931,30.232483 
	C22.726070,30.232483 19.200466,30.232483 16.512980,30.232483 
	C17.101406,32.561207 18.107710,34.763947 18.142189,36.981792 
	C18.310215,47.789604 18.218475,58.601452 18.218655,70.379608 
M18.213118,107.958832 
	C18.214947,120.274406 18.315186,132.591370 18.141607,144.904480 
	C18.103577,147.602341 17.090281,150.286438 16.541773,152.902222 
	C20.288509,152.902222 24.898415,152.902222 28.709776,152.902222 
	C28.115284,150.166290 27.051722,147.465500 27.018785,144.752213 
	C26.847589,130.649460 26.939062,116.543518 26.939062,102.271057 
	C22.913267,102.271057 19.301115,102.271057 16.039997,102.271057 
	C16.787693,103.956406 17.478371,105.513237 18.213118,107.958832 
M39.112930,75.917267 
	C38.361202,77.581543 37.609470,79.245811 36.875172,80.871498 
	C41.338425,80.871498 45.923901,80.871498 49.810513,80.871498 
	C49.180157,78.292618 48.090267,75.763710 48.023396,73.208031 
	C47.798496,64.613075 47.937874,56.008587 47.937874,47.195648 
	C43.904762,47.195648 40.297077,47.195648 38.110493,47.195648 
	C40.336658,56.187691 38.787487,65.692474 39.112930,75.917267 
M45.817196,39.441143 
	C46.543159,38.389629 47.962227,37.261509 47.856167,36.301956 
	C47.606762,34.045456 47.020996,31.593613 45.755360,29.794985 
	C45.240150,29.062803 41.512142,29.272198 41.146870,30.003145 
	C40.087456,32.123123 39.229553,34.927441 39.798386,37.061943 
	C40.148270,38.374859 43.256172,38.952782 45.817196,39.441143 
z"/>
<path fill="#F3F3F3" opacity="1.000000" stroke="none" 
	d="
M61.137154,34.626503 
	C60.297699,32.848125 59.488819,31.507513 58.691647,30.186300 
	C62.222324,30.186300 65.816864,30.186300 69.775711,30.186300 
	C69.775711,36.455990 69.775711,42.530628 69.775711,48.784050 
	C79.571434,43.800564 85.715668,46.879509 87.581871,57.630459 
	C88.716263,64.165520 87.983284,70.573891 84.356995,76.340347 
	C80.828606,81.951126 75.292534,83.295174 69.214195,81.003075 
	C67.048553,80.186417 64.231293,81.097801 61.167728,81.246849 
	C61.167728,66.165054 61.167728,50.614658 61.137154,34.626503 
M76.625313,51.054329 
	C72.777855,48.647976 70.340111,51.307766 70.092171,54.200764 
	C69.512207,60.967941 69.758018,67.837440 70.177025,74.634216 
	C70.269875,76.140228 72.461540,77.516846 73.686798,78.953049 
	C75.077690,77.719322 77.386169,76.685760 77.706268,75.218437 
	C79.414543,67.387749 80.157829,59.463947 76.625313,51.054329 
z"/>
<path fill="#F3F3F3" opacity="1.000000" stroke="none" 
	d="
M74.215546,127.000046 
	C73.410210,118.499184 76.027580,110.139656 72.358994,102.240814 
	C75.200890,102.240814 78.714371,102.240814 82.623535,102.240814 
	C82.623535,108.269012 82.623535,114.366798 82.623535,121.138458 
	C86.799461,118.588585 90.600143,116.271461 94.788475,119.325462 
	C99.195259,122.538757 101.044411,127.340981 100.766304,132.425858 
	C100.491638,137.447830 99.716484,142.738022 97.749359,147.302185 
	C94.839905,154.052750 88.713013,155.451813 81.834122,152.823563 
	C79.839493,152.061462 77.133652,153.160797 74.215546,153.462463 
	C74.215546,144.995682 74.215546,136.247849 74.215546,127.000046 
M91.080742,146.156281 
	C91.096848,139.557465 91.357300,132.943283 90.944077,126.371468 
	C90.849815,124.872391 88.428185,123.519661 87.077736,122.099579 
	C85.675446,123.730003 83.199478,125.276665 83.064568,127.005966 
	C82.587486,133.121140 82.637375,139.319260 83.094383,145.440613 
	C83.236053,147.338196 85.308174,149.091675 86.496468,150.911118 
	C87.979996,149.596451 89.463524,148.281769 91.080742,146.156281 
z"/>
<path fill="#F4F4F4" opacity="1.000000" stroke="none" 
	d="
M50.014126,148.961273 
	C48.507507,152.768051 44.902077,154.989899 41.604992,153.838577 
	C37.967766,152.568497 37.296635,149.435913 37.655651,146.102631 
	C38.313057,139.998932 43.044704,136.976608 47.714058,134.565430 
	C51.775570,132.468140 52.695835,129.576248 51.875027,125.754539 
	C51.533390,124.163857 50.433155,122.491653 49.183884,121.447609 
	C48.594566,120.955101 45.982071,121.581886 45.790005,122.182426 
	C45.370430,123.494331 46.093067,125.123222 46.015953,126.605270 
	C45.920979,128.430511 45.971786,130.578400 45.023300,131.929611 
	C44.425140,132.781738 41.527000,133.139389 40.704029,132.458206 
	C39.381649,131.363663 38.257416,129.238037 38.225761,127.526352 
	C38.136013,122.673203 43.372761,118.378906 49.230930,117.981644 
	C55.612183,117.548912 59.717361,120.196060 60.263920,126.044899 
	C60.850952,132.326904 60.482342,138.693008 60.794796,145.009354 
	C60.876087,146.652649 61.941769,148.247253 62.830879,150.590454 
	C59.387589,155.776016 56.344223,155.788025 52.003349,149.803360 
	C51.805645,149.530777 50.965775,149.723984 50.140030,148.982788 
	C50.837738,144.201187 51.820419,140.137054 52.803101,136.072922 
	C52.076050,135.826889 51.349003,135.580856 50.621952,135.334824 
	C49.087196,137.943909 47.069561,140.395294 46.151672,143.205841 
	C45.208672,146.093277 45.974304,148.894165 50.014126,148.961273 
z"/>
<path fill="#F4F4F4" opacity="1.000000" stroke="none" 
	d="
M18.218657,69.895737 
	C18.218475,58.601452 18.310215,47.789604 18.142189,36.981792 
	C18.107710,34.763947 17.101406,32.561207 16.512980,30.232483 
	C19.200466,30.232483 22.726070,30.232483 26.938931,30.232483 
	C26.938931,33.367611 26.938929,36.621735 26.938932,39.875854 
	C26.938940,50.686275 26.825438,61.498684 27.014887,72.305786 
	C27.065319,75.182716 28.044497,78.043373 28.599987,80.925621 
	C24.886232,80.925621 20.265047,80.925621 16.795803,80.925621 
	C17.268372,77.423004 17.743513,73.901306 18.218657,69.895737 
z"/>
<path fill="#F4F4F4" opacity="1.000000" stroke="none" 
	d="
M18.191084,107.514450 
	C17.478371,105.513237 16.787693,103.956406 16.039997,102.271057 
	C19.301115,102.271057 22.913267,102.271057 26.939062,102.271057 
	C26.939062,116.543518 26.847589,130.649460 27.018785,144.752213 
	C27.051722,147.465500 28.115284,150.166290 28.709776,152.902222 
	C24.898415,152.902222 20.288509,152.902222 16.541773,152.902222 
	C17.090281,150.286438 18.103577,147.602341 18.141607,144.904480 
	C18.315186,132.591370 18.214947,120.274406 18.191084,107.514450 
z"/>
<path fill="#F4F4F4" opacity="1.000000" stroke="none" 
	d="
M39.139297,75.471603 
	C38.787487,65.692474 40.336658,56.187691 38.110493,47.195648 
	C40.297077,47.195648 43.904762,47.195648 47.937874,47.195648 
	C47.937874,56.008587 47.798496,64.613075 48.023396,73.208031 
	C48.090267,75.763710 49.180157,78.292618 49.810513,80.871498 
	C45.923901,80.871498 41.338425,80.871498 36.875172,80.871498 
	C37.609470,79.245811 38.361202,77.581543 39.139297,75.471603 
z"/>
<path fill="#F2F2F2" opacity="1.000000" stroke="none" 
	d="
M45.471443,39.650932 
	C43.256172,38.952782 40.148270,38.374859 39.798386,37.061943 
	C39.229553,34.927441 40.087456,32.123123 41.146870,30.003145 
	C41.512142,29.272198 45.240150,29.062803 45.755360,29.794985 
	C47.020996,31.593613 47.606762,34.045456 47.856167,36.301956 
	C47.962227,37.261509 46.543159,38.389629 45.471443,39.650932 
z"/>
<path fill="#1C1C1C" opacity="1.000000" stroke="none" 
	d="
M76.856903,51.381233 
	C80.157829,59.463947 79.414543,67.387749 77.706268,75.218437 
	C77.386169,76.685760 75.077690,77.719322 73.686798,78.953049 
	C72.461540,77.516846 70.269875,76.140228 70.177025,74.634216 
	C69.758018,67.837440 69.512207,60.967941 70.092171,54.200764 
	C70.340111,51.307766 72.777855,48.647976 76.856903,51.381233 
z"/>
<path fill="#1C1C1C" opacity="1.000000" stroke="none" 
	d="
M91.013901,146.561691 
	C89.463524,148.281769 87.979996,149.596451 86.496468,150.911118 
	C85.308174,149.091675 83.236053,147.338196 83.094383,145.440613 
	C82.637375,139.319260 82.587486,133.121140 83.064568,127.005966 
	C83.199478,125.276665 85.675446,123.730003 87.077736,122.099579 
	C88.428185,123.519661 90.849815,124.872391 90.944077,126.371468 
	C91.357300,132.943283 91.096848,139.557465 91.013901,146.561691 
z"/>
<path fill="#222222" opacity="1.000000" stroke="none" 
	d="
M49.972153,148.970642 
	C45.974304,148.894165 45.208672,146.093277 46.151672,143.205841 
	C47.069561,140.395294 49.087196,137.943909 50.621952,135.334824 
	C51.349003,135.580856 52.076050,135.826889 52.803101,136.072922 
	C51.820419,140.137054 50.837738,144.201187 49.879639,148.663651 
	C49.904217,149.061981 49.930180,148.979996 49.972153,148.970642 
z"/>
</svg>